<svg preserveAspectRatio="none" width="100%" height="100%" overflow="visible" style="display: block;" viewBox="0 0 12.1667 14.8334" fill="none" xmlns="http://www.w3.org/2000/svg">
<path id="Icon" d="M7.41667 0.929742V3.68344C7.41667 4.0568 7.41667 4.24349 7.48933 4.3861C7.55325 4.51154 7.65523 4.61352 7.78067 4.67744C7.92328 4.7501 8.10997 4.7501 8.48333 4.7501H11.237M7.41667 10.7501H3.41667M8.75 8.08339H3.41667M11.4167 6.07554V10.8834C11.4167 12.0035 11.4167 12.5635 11.1987 12.9914C11.0069 13.3677 10.701 13.6737 10.3246 13.8654C9.89683 14.0834 9.33677 14.0834 8.21667 14.0834H3.95C2.8299 14.0834 2.26984 14.0834 1.84202 13.8654C1.4657 13.6737 1.15973 13.3677 0.967988 12.9914C0.750001 12.5635 0.750001 12.0035 0.750001 10.8834V3.95005C0.750001 2.82995 0.750001 2.2699 0.967988 1.84207C1.15973 1.46575 1.4657 1.15979 1.84202 0.968042C2.26984 0.750055 2.8299 0.750055 3.95 0.750055H6.09118C6.58037 0.750055 6.82496 0.750055 7.05513 0.805315C7.2592 0.854308 7.45429 0.935117 7.63324 1.04477C7.83507 1.16846 8.00802 1.34141 8.35393 1.68731L10.4794 3.8128C10.8253 4.1587 10.9983 4.33165 11.1219 4.53348C11.2316 4.71243 11.3124 4.90752 11.3614 5.11159C11.4167 5.34177 11.4167 5.58636 11.4167 6.07554Z" stroke="#9E9E9E" stroke-width="1.5" stroke-linecap="round" stroke-linejoin="round"/>
</svg>
