<svg preserveAspectRatio="none" width="100%" height="100%" overflow="visible" style="display: block;" viewBox="0 0 20 20" fill="none" xmlns="http://www.w3.org/2000/svg">
<path d="M8.61233 3.3045C9.06595 1.43483 11.7341 1.43483 12.1877 3.3045C12.3844 4.11547 13.2922 4.52051 14.0202 4.07431C15.6987 3.04583 17.585 4.93207 16.5565 6.61062C16.1103 7.33862 16.5154 8.24644 17.3263 8.44308C19.196 8.8967 19.196 11.5649 17.3263 12.0185C16.5154 12.2151 16.1103 13.1229 16.5565 13.8509C17.585 15.5295 15.6987 17.4157 14.0202 16.3872C13.2922 15.941 12.3844 16.3461 12.1877 17.157C11.7341 19.0267 9.06595 19.0267 8.61233 17.157C8.41569 16.3461 7.50787 15.941 6.77987 16.3872C5.10132 17.4157 3.21509 15.5295 4.24357 13.8509C4.68977 13.1229 4.28473 12.2151 3.47375 12.0185C1.60408 11.5649 1.60408 8.8967 3.47375 8.44308C4.28473 8.24644 4.68977 7.33862 4.24357 6.61062C3.21509 4.93207 5.10132 3.04583 6.77987 4.07431C7.50787 4.52051 8.41569 4.11547 8.61233 3.3045Z" stroke="#111111" stroke-width="1.4" stroke-linejoin="round"/>
<circle cx="10.4" cy="10.231" r="2.4" stroke="#111111" stroke-width="1.4"/>
</svg>
